{"title":"In the Name of the King A Dungeon Siege Tale (2007)[Hindi(384Kbp","uid":9121890,"size":2696537907,"categoryP":"video","categoryS":"hd___movies","magnet":"?xt=urn:btih:bc058a46892b7f67b92d6b0bac577eefa080b479&amp;dn=In+the+Name+of+the+King+A+Dungeon+Siege+Tale+%282007%29%5BHindi%28384Kbp&amp;tr=udp%3A%2F%2Ftracker.openbittorrent.com%3A80&amp;tr=udp%3A%2F%2Fopen.demonii.com%3A1337&amp;tr=udp%3A%2F%2Ftracker.coppersurfer.tk%3A6969&amp;tr=udp%3A%2F%2Fexodus.desync.com%3A6969","seeders":2,"leechers":10,"uploader":"DGrea8","files":11,"time":1383149194,"description":"In the Name of the King A Dungeon Siege Tale (2007)1080p BDRip[Hindi(384Kbps)-Eng]DD5.1-DGrea8\n\n\nStoryline:-\n\nSet in the kingdom of Ehb, the story follows Farmer ('Jason Statham' ), who was adopted by his village. When Farmer's wife, Solana (Claire Forlani), and his son leave to sell vegetables at the town of Stonebridge, Farmer's farm is attacked by creatures called Krugs. With the help of his friend and neighbor Norrick (Ron Perlman), he travels to Stonebridge where his wife and son are. Before he arrives, the Krugs, controlled by the wizard Gallian (Ray Liotta), kill his son and capture his wife. Farmer, with the help of Bastian (Will Sanderson), his brother-in-law, and Norrick sets out to find and rescue his wife. The King's nephew Fallow (Matthew Lillard) is conspiring with the wizard Gallian to take over the kingdom led by King Konreid ('Burt Reynolds' ).\n\n\nCast Info:. \n\nJason Statham\t ...\tFarmer\nLeelee Sobieski\t ...\tMuriella\nJohn Rhys-Davies\t ...\tMerick\nRon Perlman\t ...\tNorick\nClaire Forlani\t ...\tSolana\nKristanna Loken\t ...\tElora\nMatthew Lillard\t ...\tDuke Fallow\nBrian White\t ...\tCommander Tarish\nMike Dopud\t ...\tGeneral Backler\nWill Sanderson\t ...\tBastian\nTania Saulnier\t ...\tTalwyn\nRay Liotta\t ...\tGallian\nBurt Reynolds\t ...\tKing Konreid\nGabrielle Rose\t ...\tDelinda\nTerence Kelly\t ...\tTrumaine\n\n\nGeneral Info:. \n\nDirector:Uwe Boll\nWriters: Doug Taylor (screenplay), Jason Rappaport (story)\nStars: Jason Statham, Ron Perlman, Ray Liotta\nRelease Date:11 January 2008 (USA)\nGenres: Action | Adventure | Drama\n\n\nVideo Info:. \n\nVideo\nID : 1\nFormat : AVC\nFormat/Info : Advanced Video Codec\nFormat profile : &lt;a class=&quot;__cf_email__&quot; href=&quot;/cdn-cgi/l/email-protection&quot; data-cfemail=&quot;91dcf0f8ffd1dda5bfa1&quot;&gt;[email&amp;#160;protected]&lt;/a&gt;&lt;script cf-hash='f9e31' type=&quot;text/javascript&quot;&gt;\n/* &lt;![CDATA[ */!function(){try{var t=&quot;currentScript&quot;in document?document.currentScript:function(){for(var t=document.getElementsByTagName(&quot;script&quot;),e=t.length;e--;)if(t[e].getAttribute(&quot;cf-hash&quot;))return t[e]}();if(t&amp;&amp;t.previousSibling){var e,r,n,i,c=t.previousSibling,a=c.getAttribute(&quot;data-cfemail&quot;);if(a){for(e=&quot;&quot;,r=parseInt(a.substr(0,2),16),n=2;a.length-n;n+=2)i=parseInt(a.substr(n,2),16)^r,e+=String.fromCharCode(i);e=document.createTextNode(e),c.parentNode.replaceChild(e,c)}}}catch(u){}}();/* ]]&gt; */&lt;/script&gt;\nFormat settings, CABAC : Yes\nFormat settings, ReFrames : 4 frames\nMuxing mode : Header stripping\nCodec ID : V_MPEG4/ISO/AVC\nDuration : 2h 1mn\nBit rate : 2 200 Kbps\nWidth : 1 920 pixels\nHeight : 800 pixels\nDisplay aspect ratio : 2.40:1\nFrame rate mode : Variable\nFrame rate : 25.000 fps\nColor space : YUV\nChroma subsampling : 4:2:0\nBit depth : 8 bits\nScan type : Progressive\nBits/(Pixel*Frame) : 0.057\nStream size : 1.79 GiB (72%)\n\n\n\nAudio Info:. \n\nAudio #1\nID : 2\nFormat : AC-3\nFormat/Info : Audio Coding 3\nMode extension : CM (complete main)\nMuxing mode : Header stripping\nCodec ID : A_AC3\nDuration : 2h 1mn\nBit rate mode : Constant\nBit rate : 384 Kbps\nChannel(s) : 6 channels\nChannel positions : Front: L C R, Side: L R, LFE\nSampling rate : 48.0 KHz\nBit depth : 16 bits\nCompression mode : Lossy\nStream size : 335 MiB (13%)\nLanguage : English\n\nAudio #2\nID : 3\nFormat : AC-3\nFormat/Info : Audio Coding 3\nMode extension : CM (complete main)\nMuxing mode : Header stripping\nCodec ID : A_AC3\nDuration : 2h 1mn\nBit rate mode : Constant\nBit rate : 384 Kbps\nChannel(s) : 6 channels\nChannel positions : Front: L C R, Side: L R, LFE\nSampling rate : 48.0 KHz\nBit depth : 16 bits\nCompression mode : Lossy\nStream size : 335 MiB (13%)\nTitle : Org DVD Hindi Audio 384Kbps/DD5.1\nLanguage : Hindi\n\nSubtitle : English\n\n\nScreen Shoots:-\n     &lt;a href=&quot;\nhttp://img29.imageshack.us/img29/5006/ukmv.jpg&quot; rel=&quot;nofollow&quot; target=&quot;_NEW&quot;&gt;\nhttp://img29.imageshack.us/img29/5006/ukmv.jpg&lt;/a&gt;\n &lt;a href=&quot;\nhttp://img854.imageshack.us/img854/2272/umzi.jpg&quot; rel=&quot;nofollow&quot; target=&quot;_NEW&quot;&gt;\nhttp://img854.imageshack.us/img854/2272/umzi.jpg&lt;/a&gt;\n &lt;a href=&quot;\nhttp://img826.imageshack.us/img826/573/07yy.jpg&quot; rel=&quot;nofollow&quot; target=&quot;_NEW&quot;&gt;\nhttp://img826.imageshack.us/img826/573/07yy.jpg&lt;/a&gt;\n\n\nNote:-- Check The Torrent\n\n\nCheck The Sample Video In This Torrent\t\t\n\t\t","torrent":{"xt":"urn:btih:bc058a46892b7f67b92d6b0bac577eefa080b479","amp;dn":"In+the+Name+of+the+King+A+Dungeon+Siege+Tale+%282007%29%5BHindi%28384Kbp","amp;tr":["udp%3A%2F%2Ftracker.openbittorrent.com%3A80","udp%3A%2F%2Fopen.demonii.com%3A1337","udp%3A%2F%2Ftracker.coppersurfer.tk%3A6969","udp%3A%2F%2Fexodus.desync.com%3A6969"],"infoHash":"bc058a46892b7f67b92d6b0bac577eefa080b479","infoHashBuffer":{"type":"Buffer","data":[188,5,138,70,137,43,127,103,185,45,107,11,172,87,126,239,160,128,180,121]},"announce":[],"urlList":[]}}